ffmpeg version 7.1.1 Copyright (c) 2000-2025 the FFmpeg developers
  built with gcc 13.3.0 (Buildroot 2019.11-27075-g65291c48a6)
  configuration: --enable-cross-compile --cross-prefix=/x86_64/host/bin/x86_64-buildroot-linux-gnu- --sysroot=/x86_64/host/x86_64-buildroot-linux-gnu/sysroot --host-cc='/x86_64/host/bin/ccache /usr/bin/gcc' --arch=x86_64 --target-os=linux --disable-stripping --pkg-config=/x86_64/host/bin/pkg-config --enable-static --enable-shared --prefix=/usr --enable-avfilter --disable-version3 --enable-logging --enable-optimizations --disable-extra-warnings --enable-avdevice --enable-avcodec --enable-avformat --enable-network --disable-gray --enable-swscale-alpha --disable-small --disable-dxva2 --enable-runtime-cpudetect --disable-hardcoded-tables --disable-mipsdsp --disable-mipsdspr2 --disable-msa --enable-hwaccels --disable-cuda --disable-cuvid --disable-nvenc --disable-avisynth --disable-frei0r --disable-libopencore-amrnb --disable-libopencore-amrwb --disable-libdc1394 --disable-libgsm --disable-libilbc --disable-libvo-amrwbenc --disable-symver --disable-doc --enable-libpulse --enable-demuxer=dash --enable-libxml2 --enable-gpl --disable-nonfree --enable-ffmpeg --disable-ffplay --enable-libjack --enable-libv4l2 --enable-ffprobe --enable-libxcb --enable-libxcb-shape --enable-libxcb-shm --enable-libxcb-xfixes --enable-postproc --enable-swscale --enable-indevs --enable-alsa --enable-outdevs --enable-pthreads --enable-zlib --enable-bzlib --disable-libfdk-aac --enable-libcdio --enable-gnutls --disable-openssl --enable-libdrm --enable-libopenh264 --enable-libvorbis --enable-muxer=ogg --enable-encoder=libvorbis --enable-vaapi --enable-vdpau --disable-mmal --disable-omx --disable-omx-rpi --disable-libopencv --enable-libopus --enable-libvpx --enable-libass --enable-libbluray --enable-libvpl --disable-libmfx --enable-librtmp --enable-libmp3lame --enable-libmodplug --enable-libspeex --enable-libtheora --disable-iconv --enable-cuda --enable-cuvid --enable-nvdec --enable-nvenc --enable-libfreetype --enable-fontconfig --enable-libharfbuzz --enable-libfribidi --enable-libopenjpeg --enable-libx264 --enable-libx265 --enable-libdav1d --enable-x86asm --enable-sse --enable-sse2 --disable-sse3 --disable-ssse3 --disable-sse4 --disable-sse42 --disable-avx --disable-avx2 --disable-armv6 --disable-armv6t2 --disable-vfp --disable-neon --enable-vulkan --enable-libshaderc --enable-liblc3 --disable-altivec --extra-libs=-latomic --enable-pic --cpu=x86-64
  libavutil      59. 39.100 / 59. 39.100
  libavcodec     61. 19.101 / 61. 19.101
  libavformat    61.  7.100 / 61.  7.100
  libavdevice    61.  3.100 / 61.  3.100
  libavfilter    10.  4.100 / 10.  4.100
  libswscale      8.  3.100 /  8.  3.100
  libswresample   5.  3.100 /  5.  3.100
  libpostproc    58.  3.100 / 58.  3.100
Input #0, x11grab, from ':0':
  Duration: N/A, start: 1774486427.714640, bitrate: 294617 kb/s
  Stream #0:0: Video: rawvideo (BGR[0] / 0x524742), bgr0, 640x480, 294617 kb/s, 29.97 fps, 29.92 tbr, 1000k tbn
Stream mapping:
  Stream #0:0 -> #0:0 (rawvideo (native) -> png (native))
Press [q] to stop, [?] for help
Output #0, image2, to '/userdata/system/logs/vga-visual-debug-20260326T005347Z/frame0.png':
  Metadata:
    encoder         : Lavf61.7.100
  Stream #0:0: Video: png, rgb24(pc, gbr/unknown/unknown, progressive), 640x480, q=2-31, 200 kb/s, 29.92 fps, 29.92 tbn
      Metadata:
        encoder         : Lavc61.19.101 png
[image2 @ 0x19ad8220] The specified filename '/userdata/system/logs/vga-visual-debug-20260326T005347Z/frame0.png' does not contain an image sequence pattern or a pattern is invalid.
[image2 @ 0x19ad8220] Use a pattern such as %03d for an image sequence or use the -update option (with -frames:v 1 if needed) to write a single image.
[out#0/image2 @ 0x19ad8150] video:1KiB audio:0KiB subtitle:0KiB other streams:0KiB global headers:0KiB muxing overhead: unknown
frame=    1 fps=0.0 q=-0.0 Lsize=N/A time=00:00:00.03 bitrate=N/A speed=0.569x    
